<svg width="67" height="30" viewBox="0 0 67 30" fill="none" xmlns="http://www.w3.org/2000/svg">
<g filter="url(#filter0_i_10785_126524)">
<rect width="30" height="30" rx="15" fill="url(#paint0_linear_10785_126524)"/>
<path d="M20.0143 10.7474C20.4141 12.503 17.7899 13.6196 17.7899 13.6196C20.0143 9.71012 15.6086 5.5625 15.6086 5.5625C15.6086 12.9026 8.45312 13.5402 8.45312 19.4395C8.45312 22.2176 10.2886 23.7593 12.5806 24.3311C12.5725 24.3257 9.77402 22.5916 10.4939 20.1121C10.4939 20.1121 11.1543 22.4463 11.9053 22.2216C12.6562 21.9969 11.1719 20.8601 11.4785 19.8135C11.7851 18.7668 12.5063 18.5273 12.8966 18.2273C13.287 17.9287 13.5274 17.3596 13.137 16.7313C13.137 16.7313 14.9995 18.3767 13.7975 19.4543C12.5954 20.5319 12.6859 21.0404 13.2869 21.3687C13.888 21.6983 15.9301 21.3391 16.5905 18.8852C16.5905 18.8852 17.5819 21.6969 16.5905 22.6252C16.5905 22.6252 17.0714 23.1041 18.0316 22.3265C18.0316 22.3265 17.8074 23.9167 16.5392 24.4387C17.9047 24.2006 19.1715 23.6893 20.0765 22.9548C23.4219 20.2426 20.0143 10.7487 20.0143 10.7487V10.7474Z" fill="url(#paint1_linear_10785_126524)"/>
<path opacity="0.1" d="M21.5377 19.1068C21.5309 19.1324 20.4788 23.0136 16.5391 24.437C17.9045 24.1988 19.1714 23.6876 20.0763 22.9531C21.0825 22.1365 21.4782 20.7064 21.539 19.1055L21.5377 19.1068Z" fill="black"/>
<path opacity="0.1" d="M8.7462 17.4961C8.55982 18.08 8.45312 18.7203 8.45312 19.4387C8.45312 22.1684 10.2251 23.7034 12.4604 24.298C9.86991 23.133 8.75161 17.5243 8.7462 17.4961Z" fill="black"/>
</g>
<path d="M44.986 20V15.954H41.262V20H38.868V10.172H41.262V14.022H44.986V10.172H47.38V20H44.986ZM52.9582 11.376L52.2722 10.55C52.7482 10.354 53.0422 10.144 53.0422 9.808C53.0422 9.528 52.8042 9.43 52.4822 9.43C52.3142 9.43 52.0622 9.472 51.8382 9.556V8.408C52.1602 8.268 52.5382 8.184 52.8462 8.184C53.7002 8.184 54.5122 8.576 54.5122 9.57C54.5122 10.27 54.1622 10.914 52.9582 11.376ZM56.7522 16.094C56.7522 18.572 54.9602 20.112 52.6642 20.112C50.3682 20.112 48.6322 18.572 48.6322 16.094C48.6322 13.616 50.4102 12.076 52.6922 12.076C54.9882 12.076 56.7522 13.616 56.7522 16.094ZM51.0682 16.094C51.0682 17.41 51.7962 18.04 52.6642 18.04C53.5182 18.04 54.3162 17.41 54.3162 16.094C54.3162 14.764 53.5322 14.148 52.6922 14.148C51.8242 14.148 51.0682 14.764 51.0682 16.094ZM57.5463 16.08C57.5463 13.616 59.0723 12.076 60.9903 12.076C62.1523 12.076 62.9783 12.608 63.3983 13.294V12.188H65.7923V20H63.3983V18.894C62.9643 19.58 62.1383 20.112 60.9763 20.112C59.0723 20.112 57.5463 18.544 57.5463 16.08ZM63.3983 16.094C63.3983 14.848 62.6003 14.162 61.6903 14.162C60.7943 14.162 59.9823 14.834 59.9823 16.08C59.9823 17.326 60.7943 18.026 61.6903 18.026C62.6003 18.026 63.3983 17.34 63.3983 16.094Z" fill="url(#paint2_linear_10785_126524)"/>
<defs>
<filter id="filter0_i_10785_126524" x="0" y="0" width="30" height="34" filterUnits="userSpaceOnUse" color-interpolation-filters="sRGB">
<feFlood flood-opacity="0" result="BackgroundImageFix"/>
<feBlend mode="normal" in="SourceGraphic" in2="BackgroundImageFix" result="shape"/>
<feColorMatrix in="SourceAlpha" type="matrix" values="0 0 0 0 0 0 0 0 0 0 0 0 0 0 0 0 0 0 127 0" result="hardAlpha"/>
<feOffset dy="4"/>
<feGaussianBlur stdDeviation="2"/>
<feComposite in2="hardAlpha" operator="arithmetic" k2="-1" k3="1"/>
<feColorMatrix type="matrix" values="0 0 0 0 0 0 0 0 0 0 0 0 0 0 0 0 0 0 0.25 0"/>
<feBlend mode="normal" in2="shape" result="effect1_innerShadow_10785_126524"/>
</filter>
<linearGradient id="paint0_linear_10785_126524" x1="15" y1="0" x2="15" y2="30" gradientUnits="userSpaceOnUse">
<stop stop-color="#E65E37"/>
<stop offset="1" stop-color="#8F1D19"/>
</linearGradient>
<linearGradient id="paint1_linear_10785_126524" x1="14.9995" y1="5.5625" x2="14.9995" y2="24.4373" gradientUnits="userSpaceOnUse">
<stop stop-color="#FFE16B"/>
<stop offset="1" stop-color="#F7941D"/>
</linearGradient>
<linearGradient id="paint2_linear_10785_126524" x1="52.5" y1="4" x2="52.5" y2="26" gradientUnits="userSpaceOnUse">
<stop stop-color="#E65E37"/>
<stop offset="1" stop-color="#8F1D19"/>
</linearGradient>
</defs>
</svg>
