<svg width="67" height="30" viewBox="0 0 67 30" fill="none" xmlns="http://www.w3.org/2000/svg">
<g filter="url(#filter0_i_10785_126573)">
<rect width="30" height="30" rx="15" fill="url(#paint0_linear_10785_126573)"/>
<g clip-path="url(#clip0_10785_126573)">
<path d="M13.0047 16.8262C13.4662 16.3701 13.9049 15.8984 14.3143 15.4267C11.3832 11.9418 10.665 9.05896 10.665 9.05896C11.7829 11.5632 13.1705 13.5958 14.5191 15.1877C14.6555 15.0264 14.792 14.865 14.922 14.7005C11.6626 10.6726 10.223 6.57642 10.223 6.57642C7.04165 7.48255 4 5 4 5C7.04165 10.4492 10.3303 14.2754 13.0047 16.8262Z" fill="url(#paint1_linear_10785_126573)"/>
<path d="M18.7881 21.3971L19.529 20.2396C18.3689 19.4142 17.3615 18.5701 16.4841 17.7354C16.0357 18.145 15.61 18.5143 15.207 18.8494C17.3615 20.643 18.7881 21.3971 18.7881 21.3971Z" fill="url(#paint2_linear_10785_126573)"/>
<path d="M19.7279 19.9296L19.9846 19.5293C18.9382 18.8 17.9861 17.987 17.1282 17.1367C16.9885 17.2702 16.852 17.3974 16.7188 17.5215C18.1648 18.8962 19.3412 19.6813 19.7312 19.9265L19.7279 19.9296Z" fill="url(#paint3_linear_10785_126573)"/>
<path d="M20.6694 22.3974L20.5817 21.4199L19.6328 21.8326L20.6792 22.4533C20.6792 22.4533 20.6727 22.4409 20.6727 22.4316C20.6727 22.4191 20.6694 22.4067 20.6727 22.3943L20.6694 22.3974Z" fill="url(#paint4_linear_10785_126573)"/>
<path d="M21.9727 20.7207C21.9727 20.7207 21.9792 20.7486 21.9759 20.761L22.2684 21.9837L23.6105 21.6951L21.9727 20.7207Z" fill="url(#paint5_linear_10785_126573)"/>
<path d="M22.5855 23.3187L23.5994 22.9059L23.5116 21.916L22.3125 22.1798L22.5855 23.3187Z" fill="url(#paint6_linear_10785_126573)"/>
<path d="M20.4646 20.1L21.1275 19.0852C21.342 18.7563 21.238 18.325 20.8935 18.1202C20.549 17.9153 20.0973 18.0146 19.8829 18.3436C19.6684 18.6725 19.7724 19.1039 20.1168 19.3087C20.1851 19.349 20.2566 19.3769 20.3313 19.3956L19.5254 20.6337L18.7195 21.8719C18.6708 21.816 18.6123 21.7664 18.544 21.7261C18.1996 21.5212 17.7479 21.6205 17.5334 21.9495C17.3189 22.2784 17.4229 22.7098 17.7674 22.9146C18.1118 23.1194 18.5635 23.0201 18.778 22.6911L19.4182 21.7074H19.4214L20.562 21.2109L20.4646 20.1Z" fill="url(#paint7_linear_10785_126573)"/>
<path d="M22.0655 22.0303L21.7925 20.8945L20.7852 21.3321L20.8696 22.291L22.0655 22.0303Z" fill="url(#paint8_linear_10785_126573)"/>
<path d="M21.8391 20.6559C21.8391 20.6559 21.8489 20.6559 21.8521 20.6559L20.6562 19.9453L20.7602 21.1276L21.8001 20.6746C21.8001 20.6746 21.8229 20.6621 21.8359 20.659L21.8391 20.6559Z" fill="url(#paint9_linear_10785_126573)"/>
<path d="M20.7891 22.5206L22.4074 23.4825L22.1084 22.2227L20.7891 22.5206Z" fill="url(#paint10_linear_10785_126573)"/>
<path d="M24.7202 22.359L23.6998 21.7539L23.794 22.8245L24.6389 22.4801L24.4472 22.7717L23.8103 23.0324L23.8655 23.6624L23.6836 23.9416L23.6088 23.1131L22.5722 23.5351C22.5722 23.5351 22.5462 23.5538 22.5299 23.5569C22.5299 23.5569 22.5267 23.5569 22.5234 23.5569L23.5373 24.1589L23.2254 24.6399L23.8298 24.9998L25.6333 22.238L25.0289 21.878L24.7169 22.359H24.7202Z" fill="url(#paint11_linear_10785_126573)"/>
<path d="M14.4746 15.6228C14.0652 16.0976 13.6265 16.5662 13.165 17.0223C12.3039 17.8726 11.355 18.6856 10.3086 19.4149L10.5653 19.8152C10.9553 19.57 12.1316 18.7849 13.5777 17.4102C13.9904 17.0161 14.4291 16.5755 14.8743 16.0852C14.9426 16.0076 15.0141 15.93 15.0823 15.8524C15.2155 15.7035 15.3488 15.5483 15.4853 15.387C16.8339 13.795 18.2214 11.7624 19.3393 9.25818C19.3393 9.25818 18.6211 12.141 15.69 15.6259C15.5632 15.778 15.43 15.93 15.2935 16.0852C15.2253 16.1628 15.1538 16.2403 15.0856 16.3179C14.6956 16.7462 14.2699 17.1837 13.8084 17.6213C12.931 18.456 11.9237 19.3001 10.7635 20.1255L11.5045 21.283C11.5045 21.283 12.931 20.5258 15.0856 18.7353C15.4885 18.4001 15.9142 18.0309 16.3627 17.6213C16.4374 17.553 16.5154 17.4816 16.5934 17.4102C16.7299 17.2861 16.8663 17.1558 17.0028 17.0254C19.6773 14.4746 22.9659 10.6484 26.0076 5.19922C26.0076 5.19922 22.9659 7.68176 19.7845 6.77874C19.7845 6.77874 18.3449 10.8718 15.0856 14.9029C14.9556 15.0642 14.8191 15.2287 14.6826 15.3901C14.6144 15.4707 14.5461 15.5483 14.4779 15.6259L14.4746 15.6228Z" fill="url(#paint12_linear_10785_126573)"/>
<path d="M9.62369 22.2781C9.62369 22.2781 9.62369 22.3029 9.62369 22.3153C9.62369 22.3216 9.62044 22.3309 9.61719 22.3371L10.6636 21.7164L9.71468 21.3037L9.62694 22.2812L9.62369 22.2781Z" fill="url(#paint13_linear_10785_126573)"/>
<path d="M6.68359 21.5808L8.02569 21.8694L8.31816 20.6468C8.31816 20.6468 8.31816 20.6189 8.32141 20.6064L6.68359 21.5808Z" fill="url(#paint14_linear_10785_126573)"/>
<path d="M7.70595 23.2003L7.97892 22.0614L6.78305 21.8008L6.69531 22.7876L7.70595 23.2003Z" fill="url(#paint15_linear_10785_126573)"/>
<path d="M11.7457 21.6079C11.6775 21.6482 11.619 21.6979 11.5703 21.7537L10.7644 20.5156L9.95845 19.2774C10.0332 19.2588 10.1047 19.2309 10.1729 19.1905C10.5174 18.9857 10.6214 18.5544 10.4069 18.2254C10.1924 17.8965 9.74073 17.7972 9.39627 18.002C9.0518 18.2068 8.94782 18.6381 9.16229 18.9671L9.82522 19.9818L9.72773 21.0928L10.8683 21.5893H10.8716L11.5118 22.5699C11.7263 22.8988 12.1779 22.9981 12.5224 22.7933C12.8669 22.5885 12.9709 22.1572 12.7564 21.8282C12.5419 21.4993 12.0902 21.4 11.7457 21.6048V21.6079Z" fill="url(#paint16_linear_10785_126573)"/>
<path d="M8.22266 21.9121L9.42177 22.1728L9.50626 21.217L8.49563 20.7764L8.22266 21.9121Z" fill="url(#paint17_linear_10785_126573)"/>
<path d="M8.43684 20.538C8.43684 20.538 8.44659 20.538 8.44984 20.538C8.46284 20.538 8.47584 20.5473 8.48559 20.5535L9.52547 21.0065L9.62946 19.8242L8.43359 20.5348L8.43684 20.538Z" fill="url(#paint18_linear_10785_126573)"/>
<path d="M7.88281 23.3675L9.49788 22.4055L8.17853 22.1045L7.88281 23.3675Z" fill="url(#paint19_linear_10785_126573)"/>
<path d="M7.75508 23.4397C7.73884 23.4366 7.72259 23.4273 7.71284 23.4179L6.67621 22.9959L6.60147 23.8245L6.41949 23.5452L6.47473 22.9152L5.8378 22.6546L5.64607 22.3629L6.49098 22.7073L6.58522 21.6367L5.56483 22.2418L5.25287 21.7608L4.64844 22.1208L6.45198 24.8826L7.05641 24.5227L6.74445 24.0417L7.75833 23.4397C7.75833 23.4397 7.75508 23.4397 7.75184 23.4397H7.75508Z" fill="url(#paint20_linear_10785_126573)"/>
</g>
</g>
<path d="M44.566 20L41.262 15.66V20H38.868V10.172H41.262V14.484L44.538 10.172H47.352L43.544 14.988L47.492 20H44.566ZM48.6297 20V12.188H51.0237V20H48.6297ZM49.8337 11.166C48.9937 11.166 48.4337 10.592 48.4337 9.878C48.4337 9.15 48.9937 8.576 49.8337 8.576C50.6597 8.576 51.2197 9.15 51.2197 9.878C51.2197 10.592 50.6597 11.166 49.8337 11.166ZM63.5246 20V15.758C63.5246 14.736 62.9366 14.176 62.0266 14.176C61.1166 14.176 60.5286 14.736 60.5286 15.758V20H58.1486V15.758C58.1486 14.736 57.5606 14.176 56.6506 14.176C55.7406 14.176 55.1526 14.736 55.1526 15.758V20H52.7586V12.188H55.1526V13.168C55.6146 12.538 56.4126 12.104 57.4346 12.104C58.6106 12.104 59.5626 12.622 60.0946 13.56C60.6126 12.734 61.5926 12.104 62.7266 12.104C64.6586 12.104 65.9046 13.336 65.9046 15.436V20H63.5246Z" fill="url(#paint21_linear_10785_126573)"/>
<defs>
<filter id="filter0_i_10785_126573" x="0" y="0" width="30" height="34" filterUnits="userSpaceOnUse" color-interpolation-filters="sRGB">
<feFlood flood-opacity="0" result="BackgroundImageFix"/>
<feBlend mode="normal" in="SourceGraphic" in2="BackgroundImageFix" result="shape"/>
<feColorMatrix in="SourceAlpha" type="matrix" values="0 0 0 0 0 0 0 0 0 0 0 0 0 0 0 0 0 0 127 0" result="hardAlpha"/>
<feOffset dy="4"/>
<feGaussianBlur stdDeviation="2"/>
<feComposite in2="hardAlpha" operator="arithmetic" k2="-1" k3="1"/>
<feColorMatrix type="matrix" values="0 0 0 0 0 0 0 0 0 0 0 0 0 0 0 0 0 0 0.25 0"/>
<feBlend mode="normal" in2="shape" result="effect1_innerShadow_10785_126573"/>
</filter>
<linearGradient id="paint0_linear_10785_126573" x1="15" y1="0" x2="15" y2="30" gradientUnits="userSpaceOnUse">
<stop stop-color="#BCBCBD"/>
<stop offset="0.504808" stop-color="#FBFBFB"/>
<stop offset="1" stop-color="#AFB0B4"/>
</linearGradient>
<linearGradient id="paint1_linear_10785_126573" x1="4.68263" y1="7.21742" x2="13.9128" y2="14.6203" gradientUnits="userSpaceOnUse">
<stop stop-color="#666666"/>
<stop offset="0.504808" stop-color="#9B9B9A"/>
<stop offset="1" stop-color="#4D4D4D"/>
</linearGradient>
<linearGradient id="paint2_linear_10785_126573" x1="15.4772" y1="18.4219" x2="18.404" y2="21.422" gradientUnits="userSpaceOnUse">
<stop stop-color="#666666"/>
<stop offset="0.504808" stop-color="#9B9B9A"/>
<stop offset="1" stop-color="#4D4D4D"/>
</linearGradient>
<linearGradient id="paint3_linear_10785_126573" x1="16.9229" y1="17.6604" x2="19.1557" y2="19.9278" gradientUnits="userSpaceOnUse">
<stop stop-color="#666666"/>
<stop offset="0.504808" stop-color="#9B9B9A"/>
<stop offset="1" stop-color="#4D4D4D"/>
</linearGradient>
<linearGradient id="paint4_linear_10785_126573" x1="19.6982" y1="21.6137" x2="20.5177" y2="22.3343" gradientUnits="userSpaceOnUse">
<stop stop-color="#666666"/>
<stop offset="0.504808" stop-color="#9B9B9A"/>
<stop offset="1" stop-color="#4D4D4D"/>
</linearGradient>
<linearGradient id="paint5_linear_10785_126573" x1="22.075" y1="20.9575" x2="23.0778" y2="22.0868" gradientUnits="userSpaceOnUse">
<stop stop-color="#666666"/>
<stop offset="0.504808" stop-color="#9B9B9A"/>
<stop offset="1" stop-color="#4D4D4D"/>
</linearGradient>
<linearGradient id="paint6_linear_10785_126573" x1="22.3929" y1="22.179" x2="23.4861" y2="23.05" gradientUnits="userSpaceOnUse">
<stop stop-color="#666666"/>
<stop offset="0.504808" stop-color="#9B9B9A"/>
<stop offset="1" stop-color="#4D4D4D"/>
</linearGradient>
<linearGradient id="paint7_linear_10785_126573" x1="17.6604" y1="18.9526" x2="21.3461" y2="21.3924" gradientUnits="userSpaceOnUse">
<stop stop-color="#666666"/>
<stop offset="0.504808" stop-color="#9B9B9A"/>
<stop offset="1" stop-color="#4D4D4D"/>
</linearGradient>
<linearGradient id="paint8_linear_10785_126573" x1="20.8652" y1="21.1564" x2="21.9533" y2="22.0228" gradientUnits="userSpaceOnUse">
<stop stop-color="#666666"/>
<stop offset="0.504808" stop-color="#9B9B9A"/>
<stop offset="1" stop-color="#4D4D4D"/>
</linearGradient>
<linearGradient id="paint9_linear_10785_126573" x1="20.731" y1="20.167" x2="21.6684" y2="20.9904" gradientUnits="userSpaceOnUse">
<stop stop-color="#666666"/>
<stop offset="0.504808" stop-color="#9B9B9A"/>
<stop offset="1" stop-color="#4D4D4D"/>
</linearGradient>
<linearGradient id="paint10_linear_10785_126573" x1="20.8902" y1="22.4589" x2="21.8916" y2="23.5759" gradientUnits="userSpaceOnUse">
<stop stop-color="#666666"/>
<stop offset="0.504808" stop-color="#9B9B9A"/>
<stop offset="1" stop-color="#4D4D4D"/>
</linearGradient>
<linearGradient id="paint11_linear_10785_126573" x1="22.7178" y1="22.3625" x2="25.2698" y2="24.4859" gradientUnits="userSpaceOnUse">
<stop stop-color="#666666"/>
<stop offset="0.504808" stop-color="#9B9B9A"/>
<stop offset="1" stop-color="#4D4D4D"/>
</linearGradient>
<linearGradient id="paint12_linear_10785_126573" x1="11.2898" y1="8.21493" x2="23.976" y2="18.9683" gradientUnits="userSpaceOnUse">
<stop stop-color="#666666"/>
<stop offset="0.504808" stop-color="#9B9B9A"/>
<stop offset="1" stop-color="#4D4D4D"/>
</linearGradient>
<linearGradient id="paint13_linear_10785_126573" x1="9.68259" y1="21.4975" x2="10.502" y2="22.2181" gradientUnits="userSpaceOnUse">
<stop stop-color="#666666"/>
<stop offset="0.504808" stop-color="#9B9B9A"/>
<stop offset="1" stop-color="#4D4D4D"/>
</linearGradient>
<linearGradient id="paint14_linear_10785_126573" x1="6.78596" y1="20.8433" x2="7.78871" y2="21.9725" gradientUnits="userSpaceOnUse">
<stop stop-color="#666666"/>
<stop offset="0.504808" stop-color="#9B9B9A"/>
<stop offset="1" stop-color="#4D4D4D"/>
</linearGradient>
<linearGradient id="paint15_linear_10785_126573" x1="6.77554" y1="22.0632" x2="7.86619" y2="22.9319" gradientUnits="userSpaceOnUse">
<stop stop-color="#666666"/>
<stop offset="0.504808" stop-color="#9B9B9A"/>
<stop offset="1" stop-color="#4D4D4D"/>
</linearGradient>
<linearGradient id="paint16_linear_10785_126573" x1="9.28935" y1="18.8338" x2="12.9736" y2="21.2743" gradientUnits="userSpaceOnUse">
<stop stop-color="#666666"/>
<stop offset="0.504808" stop-color="#9B9B9A"/>
<stop offset="1" stop-color="#4D4D4D"/>
</linearGradient>
<linearGradient id="paint17_linear_10785_126573" x1="8.30288" y1="21.0382" x2="9.39165" y2="21.9073" gradientUnits="userSpaceOnUse">
<stop stop-color="#666666"/>
<stop offset="0.504808" stop-color="#9B9B9A"/>
<stop offset="1" stop-color="#4D4D4D"/>
</linearGradient>
<linearGradient id="paint18_linear_10785_126573" x1="8.50834" y1="20.0459" x2="9.44577" y2="20.8693" gradientUnits="userSpaceOnUse">
<stop stop-color="#666666"/>
<stop offset="0.504808" stop-color="#9B9B9A"/>
<stop offset="1" stop-color="#4D4D4D"/>
</linearGradient>
<linearGradient id="paint19_linear_10785_126573" x1="7.98375" y1="22.3413" x2="8.98807" y2="23.4566" gradientUnits="userSpaceOnUse">
<stop stop-color="#666666"/>
<stop offset="0.504808" stop-color="#9B9B9A"/>
<stop offset="1" stop-color="#4D4D4D"/>
</linearGradient>
<linearGradient id="paint20_linear_10785_126573" x1="4.84281" y1="22.2453" x2="7.39484" y2="24.3687" gradientUnits="userSpaceOnUse">
<stop stop-color="#666666"/>
<stop offset="0.504808" stop-color="#9B9B9A"/>
<stop offset="1" stop-color="#4D4D4D"/>
</linearGradient>
<linearGradient id="paint21_linear_10785_126573" x1="52.5" y1="4" x2="52.5" y2="26" gradientUnits="userSpaceOnUse">
<stop stop-color="#969696"/>
<stop offset="1" stop-color="#424242"/>
</linearGradient>
<clipPath id="clip0_10785_126573">
<rect width="22" height="20" fill="white" transform="translate(4 5)"/>
</clipPath>
</defs>
</svg>
