<svg width="65" height="30" viewBox="0 0 65 30" fill="none" xmlns="http://www.w3.org/2000/svg">
<g filter="url(#filter0_i_10785_126546)">
<rect width="30" height="30" rx="15" fill="url(#paint0_linear_10785_126546)"/>
<g clip-path="url(#clip0_10785_126546)">
<path d="M6.78216 16.6515C6.83442 16.6687 6.89158 16.6889 6.95364 16.7123C6.96833 16.8197 6.96017 16.9302 6.91607 17.047C6.85892 17.1996 6.82789 17.3397 6.81809 17.5078C6.78053 18.1804 6.64989 18.6537 6.05056 18.7829C5.99503 18.7954 5.98034 18.8763 6.00157 18.9308C6.06362 19.0881 6.12894 19.2516 6.15997 19.4244C6.22693 19.7902 5.95747 19.7747 5.74681 19.6797C5.69129 19.6548 5.6227 19.7342 5.64556 19.8027C5.87419 20.4893 5.52471 20.9377 5.46919 21.6087C5.4153 22.2486 5.25689 22.711 4.98417 23.1983C5.0054 22.7655 5.04133 22.2859 4.93028 21.9014C4.88293 21.7364 4.62654 21.3456 4.69023 21.2195C4.75065 21.1027 4.8421 20.9937 4.88293 20.8629C4.96295 20.6092 4.88946 20.3523 4.68859 20.2262C4.63144 20.1904 4.51712 20.125 4.4518 20.1468C4.2885 20.2013 4.29993 20.2013 4.19378 20.0316C4.03047 19.77 3.64344 19.5583 3.38379 19.5069C3.26784 19.4835 3.03431 19.4415 2.93633 19.5614C2.75343 19.7856 2.693 20.2184 2.56563 20.494C2.41865 20.8131 2.24555 21.1354 2.00876 21.3518C2.23575 20.7913 2.02345 19.9413 2.31904 19.3979C2.35986 19.3232 2.29291 19.2282 2.22758 19.25C1.64459 19.4477 1.81116 18.3221 1.53517 17.9562C1.36043 17.7242 1.13344 17.5483 1.04526 17.24C0.96197 16.9505 0.850922 16.6173 0.847656 16.2981C1.04689 16.6422 1.25592 16.9769 1.40943 17.3506C1.52211 17.6215 1.7491 17.6993 1.9663 17.7741C2.27984 17.8815 2.23248 18.3735 2.58522 18.4404C2.96082 18.512 3.33969 18.5463 3.71856 18.5899C3.99128 18.621 4.21174 18.8468 4.4763 18.7845C4.57428 18.7611 4.64777 18.6444 4.75228 18.6257C4.8617 18.6054 4.97438 18.5868 5.08379 18.5541C5.56227 18.4062 5.81866 18.0403 5.90522 17.4565C5.91501 17.3895 5.86929 17.3039 5.8056 17.3335C5.89868 17.2899 5.79417 17.0626 5.76477 17.0906C5.786 17.0703 5.80887 17.0408 5.8056 17.0034C5.76314 16.6048 5.79254 16.3744 5.57534 16.035C5.4349 15.8155 5.25363 15.5368 5.0201 15.4683C5.10012 15.0308 5.32875 14.6494 4.8176 14.5824C4.29829 14.5139 3.57485 14.4034 3.18129 14.9016C3.20578 14.6011 3.39685 14.31 3.64671 14.257C3.77082 14.2306 3.90799 14.2461 4.03047 14.2119C4.19704 14.1652 4.28196 14.078 4.37015 13.8989C4.39301 13.8538 4.37995 13.7868 4.34075 13.7619C3.93739 13.5004 4.01251 12.7484 3.82471 12.2798C3.75939 12.1163 3.7006 11.9622 3.64671 11.8127C3.7104 11.7691 3.78552 11.7255 3.89166 11.6741C3.91289 11.6632 3.92922 11.657 3.94229 11.6523C3.94719 11.6773 3.95045 11.7084 3.95372 11.7333C3.97985 11.9248 4.02067 12.2159 4.22317 12.5195C4.4469 12.8543 4.52202 12.9103 4.72942 13.0349C4.88293 13.1283 5.11482 13.2684 5.59984 13.6732C5.65536 13.7199 5.70762 13.7619 5.75334 13.8024C5.75334 13.8024 5.75334 13.8055 5.75171 13.8071C5.67659 13.9503 5.73864 14.12 5.75987 14.1761C5.84969 14.4205 5.85296 14.5357 5.85786 14.7085C5.86439 14.9156 5.87092 15.1725 6.013 15.6972C6.21223 16.4336 6.40166 16.527 6.77727 16.6531L6.78216 16.6515Z" fill="#A6732C"/>
<path d="M19.7687 14.7468C19.9483 15.0956 20.1508 15.4256 20.3435 15.7619C20.5346 16.0935 20.6587 16.4578 20.8318 16.8019C21.3478 17.8279 22.0892 18.6282 22.6445 19.6137C22.8666 20.0091 23.0217 20.4637 23.2748 20.8312C23.5231 21.1908 23.8088 21.5006 24.0963 21.812C24.6499 22.413 25.2574 23.0669 25.4109 23.9792C25.1381 23.6289 24.9389 23.193 24.6776 22.8302C24.3771 22.4114 24.1518 22.2619 23.6962 22.3071C23.1866 22.3569 22.811 21.9537 22.3228 22.2448C22.117 22.3678 22.1056 23.1058 21.6875 22.7508C21.5177 22.6076 21.3838 22.4628 21.1796 22.3943C20.5525 22.1841 19.8993 22.1981 19.2739 21.963C19.0126 21.8649 18.7676 21.7295 18.4916 21.7684C18.0948 21.826 17.9397 21.6501 17.6408 21.401C17.4742 21.264 16.9909 20.951 16.8031 21.2204C16.71 21.3527 16.7312 21.566 16.7492 21.7637C16.4013 21.2982 16.0747 20.8031 15.5962 20.5369C15.5538 20.5136 15.5113 20.5245 15.4852 20.5727C15.4541 20.6303 15.4215 20.6879 15.3905 20.7455C14.8287 20.3594 14.2735 19.9359 13.6676 19.665C13.1858 19.4486 12.5081 19.4206 12.1211 18.9707C12.7172 18.9738 13.3459 19.2369 13.8325 19.6261C14.102 19.841 14.1902 19.5 14.4368 19.3225C14.4874 19.2852 14.5119 19.1933 14.5707 19.1917C14.6899 19.1886 14.7748 19.2104 14.8875 19.254C15.1014 19.3381 15.3121 19.4377 15.5276 19.5125C16.2511 19.7631 16.9664 20.0371 17.6882 20.294C17.729 20.308 17.7796 20.2769 17.7878 20.224C17.9135 19.4751 18.4557 19.855 18.7627 20.1835C18.7986 20.2224 18.8427 20.2209 18.8787 20.1835C19.1612 19.8939 19.5025 20.5073 19.7703 20.5914C19.8944 20.6303 20.1639 20.593 20.2488 20.4528C20.3615 20.2691 20.2259 20.0714 20.1965 19.8815C20.1312 19.4704 20.4562 19.3988 20.4529 19.0688C20.4529 18.9567 20.4578 18.7683 20.3745 18.6889C20.2455 18.5659 20.1181 18.5238 20.1835 18.2296C20.2374 17.9898 20.0447 17.5461 19.9352 17.3484C19.6429 16.8175 18.944 16.0966 18.3593 16.2819C18.0556 16.3784 17.9544 16.735 17.5885 16.749C17.3501 16.7583 17.0774 16.7225 16.9043 16.9576C16.821 17.0713 16.8112 17.2534 16.7802 17.3935C16.6397 18.0069 16.1613 17.6177 15.9784 17.3468C15.8036 17.0884 15.6746 16.735 15.4623 16.517C15.0149 16.053 14.3306 15.9752 13.7901 15.7526C13.163 15.4957 12.4869 15.1423 12.1505 14.4276C12.4248 14.6721 12.7531 14.8823 13.0781 14.7811C13.8211 14.5491 14.3045 15.1625 14.8532 15.6794C14.8744 15.6996 14.9136 15.6965 14.9365 15.6794C15.2598 15.4365 15.4493 15.9332 15.7318 15.902C15.771 15.8974 15.8069 15.8647 15.833 15.8304C16.0143 15.5922 16.1547 15.7354 16.2984 15.9129C16.5532 16.2259 16.8406 16.573 17.164 16.1838C17.2505 16.0795 17.2881 15.9192 17.3828 15.8226C17.569 15.6311 17.5804 15.8008 17.7306 15.7853C17.8286 15.7744 17.9086 15.7183 17.9331 15.5891C17.9723 15.3882 17.9903 15.231 17.907 15.0457C17.8139 14.8355 17.4791 14.7297 17.6049 14.409C17.6245 14.3607 17.6163 14.3 17.5755 14.272C17.0317 13.8952 17.0758 13.3254 16.919 12.6683C16.9027 12.6014 16.8471 12.5827 16.7998 12.6092C16.4274 12.8131 16.4421 12.3616 16.1596 12.4504C16.0176 12.4955 15.9947 12.6403 15.8167 12.5578C15.4607 12.3912 15.4427 12.1297 15.771 11.8448C15.8167 11.8043 15.8216 11.7404 15.7873 11.6875C15.7301 11.3855 15.7938 11.1971 15.98 11.1192C16.0469 11.0756 16.0225 10.9635 15.9604 10.9355C15.6142 10.7861 14.7193 10.8125 15.0018 10.1026C15.0296 10.0325 14.9953 9.95624 14.9316 9.95156C14.4498 9.91731 14.8581 9.31168 14.9381 9.1124C15.0083 8.93647 15.0671 8.74653 15.0916 8.55347C15.103 8.46473 15.0818 8.3791 15.0492 8.30125C14.9495 8.05838 14.9071 7.84041 14.8924 7.57418C14.8891 7.52125 14.8875 7.46831 14.8858 7.41538C14.9054 7.40604 14.9169 7.40137 14.925 7.40137C14.9528 7.40137 15.0083 7.4543 15.0655 7.51191C15.1308 7.57574 15.2108 7.65514 15.317 7.72832C15.4754 7.8373 15.5848 8.31994 15.6828 8.74808C15.7759 9.16222 15.8738 9.59036 16.0404 9.89707C16.225 10.2365 16.2527 10.2894 16.3621 10.2894C16.4079 10.2894 16.4405 10.2692 16.4601 10.2536C16.4846 10.2583 16.5516 10.2801 16.7002 10.3844C16.8749 10.5074 16.9468 10.5572 16.9745 10.5774C17.0268 10.6319 17.1166 10.6989 17.2587 10.8063C17.3403 10.8686 17.4056 10.9168 17.4465 10.9495C17.4579 11.0725 17.533 11.2204 17.6947 11.4555C18.0327 11.9459 18.0899 12.1406 18.1715 12.4099C18.2009 12.5064 18.232 12.6107 18.2777 12.7369C18.3822 13.0249 18.4361 13.0981 18.5847 13.2942C18.7088 13.4593 18.895 13.7084 19.251 14.2673L19.3065 14.356L19.5711 14.3202C19.6331 14.4712 19.7033 14.616 19.7719 14.7484L19.7687 14.7468Z" fill="#A6732C"/>
<path d="M23.0187 15.6367C22.8473 15.618 22.6725 14.894 22.6252 14.7555C22.5484 14.5281 22.4602 14.3164 22.3426 14.1171C22.1418 13.7746 21.8544 13.6796 21.5473 13.5364C21.4722 13.5006 21.4053 13.362 21.3171 13.362C21.0901 13.3651 20.966 13.3574 20.7863 13.1487C20.7667 13.1254 20.7455 13.0989 20.7227 13.0724C20.7292 13.0398 20.7341 13.0086 20.7423 12.9712C20.886 12.322 21.0248 12.0869 21.077 12.0371C21.1375 12.0807 21.1881 12.1181 21.242 12.157C21.3759 12.2535 21.5359 12.3687 21.9262 12.663C22.2626 12.9168 22.2757 12.951 22.3753 13.2219C22.4292 13.3667 22.5043 13.566 22.6497 13.8696C22.7787 14.1405 22.8554 14.279 22.9109 14.3802C23.0302 14.5966 23.0318 14.6013 23.3306 15.5915C23.3617 15.6927 23.3911 15.7846 23.4172 15.8671C23.2996 15.7441 23.169 15.6507 23.0138 15.6335L23.0187 15.6367Z" fill="#A6732C"/>
<path d="M31.3744 19.7528C31.4054 19.7528 31.4316 19.7434 31.4512 19.7325C31.4609 19.7388 31.4789 19.7497 31.5034 19.7683C31.4936 20.1731 31.4446 20.5608 31.3009 20.9625C31.0657 20.6604 30.7604 20.1747 30.6771 19.8119C30.6199 19.5628 30.6167 19.0895 30.4305 18.9183C30.2917 18.7906 30.0386 18.7673 29.9324 18.61C29.8524 18.4917 29.7724 18.3251 29.6662 18.2364C29.3674 17.9919 29.0359 17.8222 28.7289 17.5965C28.6897 17.5684 28.6407 17.5856 28.6178 17.6323C28.2945 18.2815 28.5362 19.1394 28.2128 19.8213C27.9777 20.3179 27.6053 20.6433 27.1317 20.6869C26.7986 20.718 26.3413 20.7258 26.1062 20.3724C25.9576 20.1482 26.6728 19.9412 26.7741 19.8929C26.9684 19.7995 27.1383 19.6204 27.2526 19.4071C27.3669 19.1923 27.4616 18.9759 27.6037 18.7844C27.6461 18.7268 27.669 18.6754 27.6902 18.6053C27.7425 18.4372 27.589 18.2971 27.4992 18.2208C27.3865 18.1258 27.6592 17.1979 27.6788 17.0407C27.7115 16.7775 27.7131 16.5814 27.5923 16.3541C27.3228 15.8496 26.7104 16.4179 26.4099 16.5362C26.3266 16.5689 26.2385 16.586 26.147 16.5923C26.1699 16.4413 26.214 16.2482 26.3609 15.9477C26.5504 15.5616 26.632 15.3405 26.6859 15.1942C26.7447 15.0369 26.7627 14.984 26.8574 14.8703C26.9929 14.7038 27.2362 14.6352 27.3963 14.5885C27.442 14.5745 27.4828 14.5636 27.5122 14.5527C27.5825 14.5885 27.7898 14.8735 27.9711 15.1272L28.0479 15.2331C28.2242 15.4775 28.2602 15.585 28.3451 15.845C28.4137 16.0567 28.5084 16.3447 28.7191 16.8398C28.9118 17.2898 29.0048 17.4205 29.1387 17.4205C29.2988 17.4205 29.3461 17.2259 29.3739 17.1092C29.3853 17.0593 29.4115 16.9566 29.4311 16.9363C29.577 16.9799 29.6902 17.0744 29.7707 17.2197C29.8279 17.324 29.9079 17.4672 30.032 17.6665C30.2672 18.0417 30.3325 18.1585 30.4387 18.3531C30.5285 18.515 30.6395 18.7174 30.8943 19.1503C31.198 19.6671 31.2519 19.7528 31.376 19.7528H31.3744Z" fill="#A6732C"/>
<path d="M-9.49219 25.983H39.4928L39.243 25.6467C38.8968 25.1828 38.317 24.3654 38.2288 24.1506C38.1749 24.0167 38.1129 23.9451 38.0525 23.8766C37.9496 23.7582 37.8091 23.5948 37.5854 22.8428C37.458 22.4115 37.4074 22.1951 37.3747 22.0519C37.3127 21.781 37.298 21.7358 37.0498 21.261C36.9159 21.0056 36.8799 20.8546 36.8522 20.7441C36.7754 20.4343 36.684 20.3907 36.2855 20.3206C35.6209 20.2038 35.2012 19.975 34.9627 19.5982C34.8778 19.4643 34.8843 19.4269 34.8876 19.4036C34.9284 19.1436 34.7733 19.0362 34.4745 18.8509C34.1805 18.6703 34.0874 18.594 34.0433 18.5582C33.9682 18.4959 33.9437 18.4897 33.8278 18.4617C33.7886 18.4492 33.6579 18.348 33.5632 18.2733C33.3052 18.0724 33.0129 17.8436 32.7761 17.8436C32.6013 17.8436 32.474 17.9666 32.4266 18.1799C32.3809 18.3869 32.3596 18.5924 32.3417 18.7715C32.3074 19.1171 32.2813 19.2837 32.1931 19.3148C32.0183 19.3756 31.9481 19.525 31.9106 19.6169C31.8828 19.5982 31.8387 19.5655 31.7717 19.5048C31.6084 19.3584 31.4958 19.3086 31.4092 19.3242C31.3406 19.223 31.2181 19.0128 31.1577 18.9116C30.9062 18.4835 30.7952 18.2842 30.707 18.1238C30.6009 17.9308 30.5306 17.8031 30.2889 17.4185C30.1697 17.2286 30.0946 17.0916 30.0391 16.9904C29.8709 16.6852 29.8252 16.6354 29.5034 16.5482C29.4757 16.5405 29.4479 16.5373 29.4218 16.5373C29.2356 16.5373 29.1458 16.707 29.0968 16.8549C29.0723 16.8036 29.0429 16.7366 29.0054 16.651C28.8012 16.1746 28.7114 15.8975 28.6461 15.6935C28.5579 15.4226 28.5056 15.2591 28.2901 14.9633L28.2133 14.8574C27.8818 14.3982 27.6989 14.1459 27.5046 14.1459C27.4768 14.1459 27.4491 14.1506 27.4229 14.1615C27.3984 14.1724 27.3625 14.1818 27.3184 14.1942C27.1339 14.2471 26.8252 14.3343 26.6227 14.5819C26.4872 14.7485 26.4464 14.8574 26.3859 15.024C26.3321 15.1704 26.2586 15.3697 26.0789 15.7371C25.8634 16.1761 25.8307 16.4486 25.8078 16.6292C25.7882 16.7818 25.785 16.8176 25.6919 16.8985C25.6609 16.925 25.5727 17.0029 25.5482 17.1258C25.4747 17.1258 25.38 17.1258 25.2673 17.1258C24.8819 17.1258 24.632 17.2333 24.4671 17.3033C24.4198 17.3236 24.3659 17.3469 24.3365 17.3532C24.3234 17.3267 24.2956 17.2535 24.2581 17.0651C24.1732 16.6463 24.1209 16.556 24.036 16.4315C23.969 16.3349 23.8694 16.187 23.6473 15.4506C23.3403 14.4355 23.3321 14.4106 23.1917 14.1553C23.1394 14.0588 23.066 13.9249 22.9418 13.6649C22.8047 13.3784 22.7344 13.19 22.6838 13.053C22.5613 12.7245 22.5123 12.6264 22.1074 12.3213C21.7138 12.0239 21.5521 11.9071 21.4166 11.8106C21.3578 11.7686 21.3055 11.7312 21.2402 11.6829C21.1928 11.6471 21.1406 11.63 21.0867 11.63C20.9936 11.63 20.7095 11.63 20.4351 12.8646C20.3714 13.1495 20.3731 13.3255 20.3747 13.4422C20.3747 13.5159 20.3556 13.572 20.3175 13.6104L20.2979 13.6306C20.1118 13.8143 20.0824 13.8423 19.7525 13.8875L19.4536 13.928C19.1254 13.4173 18.9392 13.1698 18.8266 13.0188C18.6894 12.835 18.66 12.7977 18.5783 12.5704C18.5359 12.4552 18.5081 12.3586 18.482 12.2683C18.3971 11.9834 18.3236 11.7374 17.948 11.1925C17.8353 11.029 17.7945 10.9465 17.7798 10.9123C17.819 10.7535 17.7373 10.6912 17.4319 10.4608C17.2327 10.3098 17.1935 10.2771 17.187 10.2693C17.1314 10.2179 17.0318 10.1494 16.8653 10.0326C16.6562 9.88627 16.5125 9.8349 16.4129 9.85047C16.3868 9.80532 16.3541 9.74304 16.3149 9.66987C16.1777 9.41609 16.0879 9.02064 16.0014 8.63609C15.8756 8.08494 15.758 7.56338 15.4804 7.37344C15.3971 7.31739 15.3351 7.25512 15.2747 7.1944C15.1751 7.09632 15.0738 6.99512 14.9301 6.99512C14.7733 6.99512 14.6182 7.11033 14.3765 7.40614C14.1201 7.72063 14.0025 8.06003 13.898 8.35896C13.7739 8.71549 13.6939 8.921 13.4881 9.00507C13.2987 9.08292 13.253 9.07046 13.2154 9.0689C13.0619 9.05956 12.9949 9.09848 12.6161 9.4628C12.4348 9.63717 12.3123 9.73993 12.2225 9.81621C11.9841 10.0155 11.9187 10.0809 11.6689 10.5791C11.5089 10.8967 11.5007 11.0913 11.4942 11.2205C11.4893 11.3186 11.4876 11.3607 11.1332 11.5646C10.5878 11.8791 10.3086 12.3322 10.062 12.7307C9.95745 12.9004 9.85784 13.0608 9.74516 13.1994C9.6929 13.2647 9.64391 13.3223 9.59982 13.3753C9.30913 13.7256 9.17685 13.8859 9.17685 14.244C9.17685 14.3063 9.18012 14.3561 9.18175 14.3982C9.18828 14.504 9.18829 14.518 8.92047 14.8465C8.79962 14.996 8.72286 15.0038 8.63305 15.0131C8.39462 15.0396 8.26724 15.1486 8.18233 15.6951C8.15946 15.8476 8.1415 15.9878 8.12517 16.1123C8.06964 16.5451 8.04188 16.6806 7.9782 16.6806C7.95043 16.6806 7.91451 16.6728 7.87041 16.6557C7.7659 16.6167 7.72507 16.609 7.69404 16.609H7.64995C7.59933 16.5809 7.534 16.5467 7.45889 16.5046C7.21229 16.3692 7.02612 16.3069 6.87589 16.2571C6.56234 16.1528 6.48885 16.1279 6.33534 15.5612C6.20797 15.0925 6.20143 14.8761 6.19654 14.6862C6.19164 14.5196 6.18837 14.3608 6.10672 14.1086C6.13774 14.1195 6.16224 14.1273 6.18837 14.1273H6.30922L6.34841 13.984C6.37454 13.8802 6.19 13.6633 5.7948 13.3332C5.29019 12.9129 5.04687 12.765 4.8852 12.6669C4.71699 12.5641 4.67616 12.5408 4.48673 12.2559C4.33812 12.0348 4.31036 11.8246 4.28587 11.6565C4.2581 11.4572 4.20584 11.0851 3.77962 11.2937C3.47424 11.4447 3.36482 11.549 3.21458 11.6938C3.1411 11.7654 3.05618 11.8464 2.92717 11.9507C2.50094 12.2995 2.35233 12.6544 2.21189 13.2289C2.15963 13.4438 2.18413 13.6664 2.20699 13.8641C2.22495 14.0167 2.24292 14.1911 2.20373 14.2471C2.19066 14.2658 2.14004 14.311 1.97183 14.311C1.94897 14.311 1.92611 14.311 1.89998 14.3079C1.57337 14.2876 1.40026 14.1958 1.27452 14.1288C1.18797 14.0837 1.11285 14.0432 1.02466 14.0432C0.866257 14.0432 0.748676 14.1771 0.644161 14.3219C0.387773 14.6753 0.373075 14.9509 0.361644 15.1735C0.355111 15.2872 0.350212 15.3868 0.312652 15.4927C0.275092 15.6016 0.286523 15.6873 0.30612 15.7433C0.297955 15.7464 0.289789 15.7511 0.279991 15.7542L-0.170731 15.9473C-0.52347 16.0978 -0.804899 16.2135 -1.01502 16.2945C-1.49677 16.4797 -1.89523 16.9219 -2.03078 17.4217C-2.10916 17.7112 -2.12876 17.9977 -2.14672 18.2499C-2.15979 18.4368 -2.17122 18.6127 -2.20551 18.759L-2.21858 18.8166C-2.2888 19.1233 -2.29696 19.1545 -2.55335 19.4705C-2.65134 19.5904 -2.71503 19.6932 -2.76565 19.7772C-2.8522 19.9174 -2.86037 19.9174 -2.89466 19.9174C-2.92079 19.9174 -2.95835 19.9096 -3.00408 19.8956C-3.14942 19.8504 -3.15758 19.8395 -3.23597 19.7352C-3.30946 19.6356 -3.4205 19.4861 -3.68016 19.2401C-3.90389 19.0299 -3.91042 18.8929 -3.91532 18.8213C-3.92838 18.5815 -4.06719 18.5629 -4.10802 18.5629C-4.17171 18.5629 -4.2305 18.5924 -4.40523 18.6827C-4.52608 18.7435 -4.65019 18.8509 -4.68612 19.0299C-4.71388 19.0097 -4.74491 18.9863 -4.77594 18.963C-5.11724 18.7061 -5.31484 18.5021 -5.44549 18.3651C-5.5892 18.2141 -5.68555 18.116 -5.82435 18.116C-5.86845 18.116 -5.91417 18.1269 -5.96153 18.1503C-6.23098 18.2826 -6.47921 18.7014 -6.57882 19.1918C-6.60659 19.332 -6.60332 19.5032 -6.59679 19.7025C-6.58209 20.2147 -6.56413 20.8515 -7.04751 21.3746C-7.81994 22.2107 -8.25923 22.8708 -8.35395 23.3363C-8.41437 23.6352 -8.29189 23.7629 -8.23311 23.8252C-8.23147 23.8283 -8.22821 23.8298 -8.22657 23.8314C-8.23311 23.8625 -8.2576 23.9326 -8.33272 24.0712C-8.6724 24.6955 -9.27173 25.6436 -9.27826 25.653L-9.48239 25.9768L-9.49219 25.983ZM37.28 22.9813C37.5299 23.8221 37.703 24.0229 37.8287 24.1692C37.8483 24.191 37.863 24.2097 37.8777 24.2284C37.7161 24.3545 37.5315 24.4324 37.3715 24.4308C37.0465 24.4246 37.022 23.9279 36.9632 23.6274C36.9534 23.5745 36.9044 23.5434 36.8636 23.5574C36.7673 23.5885 36.6872 23.6134 36.6137 23.6648C36.5403 23.4437 36.4308 23.327 36.2332 23.2273C36.2267 23.2242 36.2202 23.2195 36.2136 23.2164C36.1728 23.1962 36.1402 23.2227 36.1255 23.2616C35.8364 23.3752 35.8135 22.7385 35.4608 22.9767C35.291 23.0919 35.1211 22.8521 34.9415 22.8303C34.6704 22.7976 34.4565 22.9331 34.1887 22.9424C33.5436 22.9642 32.83 22.6528 32.3972 22.0425C32.2829 21.8806 32.1865 21.7078 32.1016 21.5225C32.1 21.5179 32.0967 21.5147 32.0951 21.5101C32.1 21.5147 32.1033 21.5194 32.1098 21.5256C32.2388 21.6408 32.3613 21.7747 32.4952 21.8775C32.7924 22.1048 33.1337 22.0503 33.4718 22.0783C33.7755 22.1032 34.1021 21.9943 34.3569 21.7825C34.5496 21.6222 34.7684 21.3077 34.5561 21.0337C34.3095 20.7145 33.7069 20.6008 34.0025 20.0404C34.027 19.9936 34.009 19.9314 33.9731 19.9033C33.6645 19.6698 33.3738 19.4114 33.0962 19.1265C32.959 18.9863 32.8283 18.8213 32.6797 18.6921C32.6944 18.5597 32.7108 18.4259 32.7401 18.292C32.7467 18.2639 32.7532 18.2546 32.7532 18.2546C32.7532 18.2546 32.7597 18.2515 32.7744 18.2515C32.9165 18.2515 33.199 18.4726 33.3868 18.6189C33.5681 18.759 33.6743 18.84 33.7624 18.8618C33.8049 18.8727 33.8261 18.8758 33.8425 18.8836C33.8457 18.8867 33.8523 18.8914 33.8621 18.8992C33.9159 18.9427 34.0172 19.0253 34.3291 19.2168C34.4663 19.3008 34.5316 19.3491 34.5626 19.3756C34.5496 19.5126 34.5757 19.648 34.7047 19.852C34.9987 20.3159 35.4853 20.5931 36.2398 20.7238C36.3149 20.7378 36.4913 20.7674 36.5239 20.7955C36.5239 20.797 36.5321 20.8359 36.5403 20.8671C36.5697 20.9854 36.6186 21.1831 36.7754 21.4852C37.0057 21.9258 37.0106 21.9429 37.0612 22.1671C37.0955 22.3165 37.1461 22.5407 37.2784 22.986L37.28 22.9813ZM30.8932 19.1514C31.1969 19.6683 31.2508 19.7539 31.3749 19.7539C31.4059 19.7539 31.4321 19.7445 31.4517 19.7336C31.4615 19.7399 31.4794 19.7508 31.5039 19.7695C31.4941 20.1742 31.4451 20.5619 31.3014 20.9636C31.0663 20.6616 30.7609 20.1758 30.6776 19.813C30.6204 19.5639 30.6172 19.0906 30.431 18.9194C30.2922 18.7917 30.0391 18.7684 29.9329 18.6111C29.8529 18.4928 29.7729 18.3262 29.6667 18.2375C29.3679 17.993 29.0364 17.8233 28.7294 17.5976C28.6902 17.5696 28.6412 17.5867 28.6183 17.6334C28.295 18.2826 28.5367 19.1405 28.2133 19.8224C27.9782 20.319 27.6058 20.6444 27.1323 20.688C26.7991 20.7192 26.3419 20.7269 26.1067 20.3735C25.9581 20.1493 26.6734 19.9423 26.7746 19.894C26.9689 19.8006 27.1388 19.6216 27.2531 19.4083C27.3674 19.1934 27.4621 18.977 27.6042 18.7855C27.6467 18.7279 27.6695 18.6765 27.6908 18.6065C27.743 18.4383 27.5895 18.2982 27.4997 18.2219C27.387 18.1269 27.6597 17.199 27.6793 17.0418C27.712 16.7787 27.7136 16.5825 27.5928 16.3552C27.3233 15.8507 26.7109 16.419 26.4104 16.5373C26.3272 16.57 26.239 16.5872 26.1475 16.5934C26.1704 16.4424 26.2145 16.2493 26.3615 15.9488C26.5509 15.5627 26.6325 15.3416 26.6864 15.1953C26.7452 15.038 26.7632 14.9851 26.8579 14.8715C26.9934 14.7049 27.2368 14.6364 27.3968 14.5897C27.4425 14.5756 27.4834 14.5647 27.5128 14.5539C27.583 14.5897 27.7904 14.8746 27.9716 15.1283L28.0484 15.2342C28.2248 15.4786 28.2607 15.5861 28.3456 15.8461C28.4142 16.0578 28.5089 16.3458 28.7196 16.8409C28.9123 17.2909 29.0054 17.4217 29.1393 17.4217C29.2993 17.4217 29.3467 17.227 29.3744 17.1103C29.3859 17.0605 29.412 16.9577 29.4316 16.9375C29.5775 16.9811 29.6907 17.0755 29.7713 17.2208C29.8284 17.3251 29.9084 17.4684 30.0326 17.6676C30.2677 18.0429 30.333 18.1596 30.4392 18.3542C30.529 18.5162 30.64 18.7186 30.8948 19.1514H30.8932ZM23.3387 15.597C23.3697 15.6982 23.3991 15.79 23.4252 15.8725C23.3076 15.7495 23.177 15.6561 23.0219 15.639C22.8504 15.6203 22.6757 14.8964 22.6283 14.7578C22.5515 14.5305 22.4634 14.3188 22.3458 14.1195C22.1449 13.777 21.8575 13.682 21.5505 13.5388C21.4754 13.5029 21.4084 13.3644 21.3202 13.3644C21.0932 13.3675 20.9691 13.3597 20.7895 13.1511C20.7699 13.1277 20.7487 13.1013 20.7258 13.0748C20.7323 13.0421 20.7372 13.011 20.7454 12.9736C20.8891 12.3244 21.0279 12.0893 21.0802 12.0395C21.1406 12.0831 21.1912 12.1204 21.2451 12.1593C21.379 12.2559 21.5391 12.3711 21.9294 12.6653C22.2658 12.9191 22.2788 12.9534 22.3784 13.2243C22.4323 13.3691 22.5075 13.5683 22.6528 13.8719C22.7818 14.1428 22.8586 14.2814 22.9141 14.3826C23.0333 14.599 23.0349 14.6037 23.3338 15.5939L23.3387 15.597ZM19.305 14.3577L19.5696 14.3219C19.6316 14.4729 19.7019 14.6177 19.7705 14.75C19.9501 15.0988 20.1526 15.4288 20.3453 15.7651C20.5364 16.0967 20.6605 16.4611 20.8336 16.8051C21.3496 17.8311 22.091 18.6314 22.6463 19.6169C22.8684 20.0123 23.0235 20.4669 23.2766 20.8344C23.5248 21.194 23.8106 21.5038 24.098 21.8152C24.6516 22.4162 25.2591 23.0701 25.4127 23.9824C25.1399 23.6321 24.9407 23.1962 24.6794 22.8334C24.3789 22.4146 24.1536 22.2652 23.6979 22.3103C23.1884 22.3601 22.8128 21.9569 22.3245 22.248C22.1188 22.371 22.1074 23.109 21.6893 22.754C21.5195 22.6108 21.3855 22.466 21.1814 22.3975C20.5543 22.1873 19.9011 22.2013 19.2756 21.9662C19.0144 21.8682 18.7694 21.7327 18.4934 21.7716C18.0966 21.8292 17.9414 21.6533 17.6426 21.4042C17.476 21.2672 16.9926 20.9543 16.8048 21.2236C16.7118 21.3559 16.733 21.5692 16.7509 21.767C16.4031 21.3014 16.0765 20.8063 15.598 20.5401C15.5556 20.5168 15.5131 20.5277 15.487 20.5759C15.4559 20.6335 15.4233 20.6911 15.3922 20.7487C14.8305 20.3626 14.2752 19.9392 13.6694 19.6683C13.1876 19.4518 12.5099 19.4238 12.1229 18.9739C12.7189 18.977 13.3477 19.2401 13.8343 19.6293C14.1038 19.8442 14.192 19.5032 14.4385 19.3257C14.4892 19.2884 14.5137 19.1965 14.5725 19.195C14.6917 19.1918 14.7766 19.2136 14.8893 19.2572C15.1032 19.3413 15.3139 19.441 15.5294 19.5157C16.2529 19.7663 16.9681 20.0404 17.6899 20.2972C17.7308 20.3113 17.7814 20.2801 17.7896 20.2272C17.9153 19.4783 18.4575 19.8582 18.7645 20.1867C18.8004 20.2256 18.8445 20.2241 18.8804 20.1867C19.163 19.8971 19.5043 20.5105 19.7721 20.5946C19.8962 20.6335 20.1657 20.5962 20.2506 20.456C20.3633 20.2723 20.2277 20.0746 20.1983 19.8847C20.133 19.4736 20.458 19.402 20.4547 19.072C20.4547 18.9599 20.4596 18.7715 20.3763 18.6921C20.2473 18.5691 20.1199 18.5271 20.1853 18.2328C20.2391 17.993 20.0464 17.5493 19.937 17.3516C19.6447 16.8207 18.9458 16.0999 18.3611 16.2851C18.0574 16.3816 17.9561 16.7382 17.5903 16.7522C17.3519 16.7615 17.0792 16.7257 16.9061 16.9608C16.8228 17.0745 16.813 17.2566 16.782 17.3967C16.6415 18.0102 16.163 17.6209 15.9801 17.35C15.8054 17.0916 15.6764 16.7382 15.4641 16.5202C15.0166 16.0563 14.3324 15.9784 13.7919 15.7558C13.1648 15.4989 12.4887 15.1455 12.1523 14.4309C12.4266 14.6753 12.7549 14.8855 13.0798 14.7843C13.8229 14.5523 14.3063 15.1657 14.855 15.6826C14.8762 15.7028 14.9154 15.6997 14.9383 15.6826C15.2616 15.4397 15.451 15.9364 15.7336 15.9052C15.7727 15.9006 15.8087 15.8679 15.8348 15.8336C16.0161 15.5954 16.1565 15.7387 16.3002 15.9161C16.555 16.2291 16.8424 16.5763 17.1657 16.187C17.2523 16.0827 17.2899 15.9224 17.3846 15.8258C17.5707 15.6343 17.5822 15.804 17.7324 15.7885C17.8304 15.7776 17.9104 15.7215 17.9349 15.5923C17.9741 15.3915 17.9921 15.2342 17.9088 15.0489C17.8157 14.8388 17.4809 14.7329 17.6067 14.4122C17.6263 14.3639 17.6181 14.3032 17.5773 14.2752C17.0335 13.8984 17.0776 13.3286 16.9208 12.6716C16.9045 12.6046 16.8489 12.5859 16.8016 12.6124C16.4292 12.8164 16.4439 12.3649 16.1614 12.4536C16.0193 12.4987 15.9965 12.6435 15.8185 12.561C15.4625 12.3944 15.4445 12.1329 15.7727 11.848C15.8185 11.8075 15.8234 11.7437 15.7891 11.6907C15.7319 11.3887 15.7956 11.2003 15.9818 11.1225C16.0487 11.0789 16.0242 10.9668 15.9622 10.9387C15.616 10.7893 14.7211 10.8157 15.0036 10.1058C15.0313 10.0357 14.997 9.95945 14.9334 9.95478C14.4516 9.92053 14.8599 9.31489 14.9399 9.11561C15.0101 8.93968 15.0689 8.74974 15.0934 8.55668C15.1048 8.46794 15.0836 8.38231 15.0509 8.30447C14.9513 8.06159 14.9089 7.84363 14.8942 7.5774C14.8909 7.52446 14.8893 7.47153 14.8876 7.41859C14.9072 7.40925 14.9187 7.40458 14.9268 7.40458C14.9546 7.40458 15.0101 7.45752 15.0673 7.51512C15.1326 7.57895 15.2126 7.65836 15.3188 7.73153C15.4772 7.84051 15.5866 8.32315 15.6846 8.7513C15.7776 9.16543 15.8756 9.59358 16.0422 9.90029C16.2267 10.2397 16.2545 10.2926 16.3639 10.2926C16.4096 10.2926 16.4423 10.2724 16.4619 10.2568C16.4864 10.2615 16.5533 10.2833 16.702 10.3876C16.8767 10.5106 16.9485 10.5604 16.9763 10.5807C17.0286 10.6351 17.1184 10.7021 17.2605 10.8095C17.3421 10.8718 17.4074 10.9201 17.4483 10.9527C17.4597 11.0757 17.5348 11.2236 17.6965 11.4587C18.0345 11.9492 18.0917 12.1438 18.1733 12.4131C18.2027 12.5096 18.2338 12.614 18.2795 12.7401C18.384 13.0281 18.4379 13.1013 18.5865 13.2974C18.7106 13.4625 18.8968 13.7116 19.2528 14.2705L19.3083 14.3592L19.305 14.3577ZM6.01527 15.6982C6.2145 16.4346 6.40393 16.528 6.77954 16.6541C6.83179 16.6712 6.88895 16.6915 6.95101 16.7148C6.9657 16.8223 6.95754 16.9328 6.91344 17.0496C6.85629 17.2021 6.82526 17.3423 6.81546 17.5104C6.7779 18.183 6.64726 18.6563 6.04793 18.7855C5.9924 18.798 5.97771 18.8789 5.99894 18.9334C6.06099 19.0906 6.12631 19.2541 6.15734 19.4269C6.2243 19.7928 5.95484 19.7772 5.74418 19.6823C5.68866 19.6574 5.62007 19.7368 5.64293 19.8053C5.87156 20.4919 5.52209 20.9402 5.46656 21.6113C5.41267 22.2511 5.25426 22.7135 4.98154 23.2009C5.00277 22.768 5.0387 22.2885 4.92766 21.904C4.8803 21.7389 4.62391 21.3481 4.6876 21.222C4.74802 21.1053 4.83947 20.9963 4.8803 20.8655C4.96032 20.6117 4.88683 20.3548 4.68596 20.2287C4.62881 20.1929 4.51449 20.1275 4.44917 20.1493C4.28587 20.2038 4.2973 20.2038 4.19115 20.0341C4.02784 19.7726 3.64081 19.5608 3.38116 19.5095C3.26521 19.4861 3.03168 19.4441 2.9337 19.5639C2.7508 19.7881 2.69037 20.221 2.563 20.4965C2.41602 20.8157 2.24292 21.138 2.00613 21.3544C2.23312 20.7939 2.02082 19.9438 2.31641 19.4005C2.35723 19.3257 2.29028 19.2308 2.22495 19.2526C1.64196 19.4503 1.80853 18.3247 1.53254 17.9588C1.35781 17.7268 1.13081 17.5509 1.04263 17.2426C0.95934 16.953 0.848292 16.6199 0.845026 16.3007C1.04426 16.6448 1.25329 16.9795 1.4068 17.3532C1.51948 17.6241 1.74647 17.7019 1.96367 17.7766C2.27721 17.8841 2.22985 18.376 2.58259 18.443C2.95819 18.5146 3.33706 18.5488 3.71593 18.5924C3.98865 18.6236 4.20911 18.8493 4.47367 18.7871C4.57165 18.7637 4.64514 18.6469 4.74965 18.6283C4.85907 18.608 4.97175 18.5893 5.08116 18.5566C5.55964 18.4087 5.81603 18.0429 5.90259 17.459C5.91238 17.3921 5.86666 17.3064 5.80297 17.336C5.89605 17.2924 5.79154 17.0651 5.76214 17.0932C5.78337 17.0729 5.80624 17.0433 5.80297 17.006C5.76051 16.6074 5.78991 16.377 5.57271 16.0376C5.43227 15.8181 5.251 15.5394 5.01747 15.4709C5.09749 15.0334 5.32612 14.6519 4.81497 14.585C4.29566 14.5165 3.57222 14.4059 3.17866 14.9042C3.20315 14.6037 3.39422 14.3125 3.64408 14.2596C3.76819 14.2331 3.90536 14.2487 4.02784 14.2144C4.19442 14.1677 4.27933 14.0806 4.36752 13.9015C4.39038 13.8564 4.37732 13.7894 4.33812 13.7645C3.93476 13.5029 4.00988 12.751 3.82208 12.2823C3.75676 12.1189 3.69797 11.9647 3.64408 11.8153C3.70777 11.7717 3.78289 11.7281 3.88903 11.6767C3.91026 11.6658 3.92659 11.6596 3.93966 11.6549C3.94456 11.6798 3.94782 11.711 3.95109 11.7359C3.97722 11.9274 4.01805 12.2185 4.22054 12.5221C4.44427 12.8568 4.51939 12.9129 4.72679 13.0374C4.8803 13.1308 5.11219 13.271 5.59721 13.6758C5.65273 13.7225 5.70499 13.7645 5.75071 13.805C5.75071 13.805 5.75071 13.8081 5.74908 13.8097C5.67396 13.9529 5.73601 14.1226 5.75724 14.1786C5.84706 14.4231 5.85033 14.5383 5.85523 14.7111C5.86176 14.9182 5.86829 15.1751 6.01037 15.6997L6.01527 15.6982ZM-2.97958 20.319C-2.95672 20.3844 -2.93059 20.4483 -2.89956 20.5121C-2.72319 20.8811 -2.26104 21.043 -2.47497 21.6097C-2.54519 21.795 -2.38188 22.0052 -2.28553 22.1235C-2.05364 22.4037 -2.08957 22.726 -2.07977 23.0561C-2.26104 22.7727 -2.43087 22.4769 -2.60888 22.1904C-2.86363 21.781 -3.08736 21.4649 -2.95182 20.9122C-2.93222 20.8297 -3.01061 20.7519 -3.07103 20.7986C-3.42214 21.0741 -3.72588 20.537 -4.11782 20.7207C-4.36114 20.8359 -4.56527 21.0788 -4.75961 21.3061C-4.63713 20.7674 -4.23376 19.6589 -4.8037 19.7523C-4.91964 19.771 -4.94577 19.8551 -5.04866 19.7539C-5.14827 19.6558 -5.23972 19.5811 -5.35567 19.5141C-5.64145 19.3507 -5.97296 19.3724 -6.21465 19.0922C-6.1183 18.7964 -5.96643 18.5878 -5.84885 18.5317C-5.83742 18.5255 -5.83252 18.5255 -5.83252 18.5255C-5.80966 18.5302 -5.7329 18.6096 -5.66595 18.6796C-5.52714 18.8229 -5.31974 19.0408 -4.95557 19.3133C-4.61753 19.5671 -4.5816 19.5935 -4.50975 19.5935H-4.42483L-4.36931 19.5032C-4.31541 19.4083 -4.34644 19.3102 -4.36277 19.2572C-4.39543 19.1514 -4.40523 19.1202 -4.29092 19.0611C-4.26969 19.0502 -4.24846 19.0393 -4.22723 19.0284C-4.19294 19.1716 -4.10965 19.3584 -3.88919 19.5655C-3.65076 19.7897 -3.55278 19.9236 -3.48746 20.0123C-3.38131 20.1556 -3.32579 20.221 -3.09389 20.2926C-3.05307 20.305 -3.01551 20.3128 -2.97958 20.3175V20.319Z" fill="#FFCB83"/>
</g>
</g>
<path d="M38.336 12.09V10.172H45.938V12.09H43.334V20H40.94V12.09H38.336ZM47.1395 20V9.64H49.5335V13.238C50.0095 12.566 50.8635 12.104 51.9415 12.104C53.7195 12.104 54.9095 13.336 54.9095 15.436V20H52.5295V15.758C52.5295 14.694 51.9415 14.106 51.0315 14.106C50.1215 14.106 49.5335 14.694 49.5335 15.758V20H47.1395ZM62.5091 9.71L61.8231 8.884C62.2991 8.688 62.5931 8.478 62.5931 8.142C62.5931 7.862 62.3551 7.764 62.0331 7.764C61.8651 7.764 61.6131 7.806 61.3891 7.89V6.742C61.7111 6.602 62.0891 6.518 62.3971 6.518C63.2511 6.518 64.0631 6.91 64.0631 7.904C64.0631 8.604 63.7131 9.248 62.5091 9.71ZM64.2171 16.094C64.2171 18.572 62.4251 20.112 60.1291 20.112C57.8331 20.112 56.0971 18.572 56.0971 16.094C56.0971 13.616 57.8751 12.076 60.1571 12.076C62.4531 12.076 64.2171 13.616 64.2171 16.094ZM58.5331 16.094C58.5331 17.41 59.2611 18.04 60.1291 18.04C60.9831 18.04 61.7811 17.41 61.7811 16.094C61.7811 14.764 60.9971 14.148 60.1571 14.148C59.2891 14.148 58.5331 14.764 58.5331 16.094ZM60.1571 10.494L58.4491 11.516L57.6511 10.354L60.1571 8.744L62.6631 10.354L61.8791 11.516L60.1571 10.494Z" fill="url(#paint1_linear_10785_126546)"/>
<defs>
<filter id="filter0_i_10785_126546" x="0" y="0" width="30" height="34" filterUnits="userSpaceOnUse" color-interpolation-filters="sRGB">
<feFlood flood-opacity="0" result="BackgroundImageFix"/>
<feBlend mode="normal" in="SourceGraphic" in2="BackgroundImageFix" result="shape"/>
<feColorMatrix in="SourceAlpha" type="matrix" values="0 0 0 0 0 0 0 0 0 0 0 0 0 0 0 0 0 0 127 0" result="hardAlpha"/>
<feOffset dy="4"/>
<feGaussianBlur stdDeviation="2"/>
<feComposite in2="hardAlpha" operator="arithmetic" k2="-1" k3="1"/>
<feColorMatrix type="matrix" values="0 0 0 0 0 0 0 0 0 0 0 0 0 0 0 0 0 0 0.25 0"/>
<feBlend mode="normal" in2="shape" result="effect1_innerShadow_10785_126546"/>
</filter>
<linearGradient id="paint0_linear_10785_126546" x1="15" y1="0" x2="15" y2="30" gradientUnits="userSpaceOnUse">
<stop stop-color="#C79235"/>
<stop offset="1" stop-color="#764620"/>
</linearGradient>
<linearGradient id="paint1_linear_10785_126546" x1="51.5" y1="4" x2="51.5" y2="26" gradientUnits="userSpaceOnUse">
<stop stop-color="#C79235"/>
<stop offset="1" stop-color="#764620"/>
</linearGradient>
<clipPath id="clip0_10785_126546">
<rect x="4" y="4" width="22" height="22" rx="11" fill="white"/>
</clipPath>
</defs>
</svg>
