<svg width="74" height="30" viewBox="0 0 74 30" fill="none" xmlns="http://www.w3.org/2000/svg">
<g filter="url(#filter0_i_10785_126612)">
<rect width="30" height="30" rx="15" fill="url(#paint0_linear_10785_126612)"/>
<g clip-path="url(#clip0_10785_126612)">
<path d="M26.5557 17.2317C23.8406 19.7452 19.4173 20.3309 15.9351 18.5922C11.4142 16.3513 10.2978 11.1861 13.5481 7.70739C15.6965 8.53826 17.2874 10.7113 17.6221 13.2913C17.7671 14.6491 18.8097 15.1357 19.5478 14.7874C19.4357 17.2161 21.8688 17.4078 22.4646 16.0813C23.8788 17.1652 25.5896 15.8778 25.1468 13.9239C26.1946 14.2083 27.5825 13.4596 26.6243 10.86C25.0677 6.64696 20.6062 3 15.1258 3C12.2064 3 9.38445 4.04217 7.18202 5.93478C2.28027 10.1452 1.58567 17.4378 5.63861 22.4687C5.65838 22.4661 5.67815 22.4661 5.69792 22.4687C6.54541 22.5587 7.3415 22.1726 7.79622 21.5048C7.91748 21.3287 8.19163 21.3613 8.26281 21.5635C9.07603 23.8435 12.2749 24.6822 14.505 23.7874C14.6408 23.7339 14.7936 23.7978 14.8477 23.9309C14.903 24.0639 14.8371 24.2165 14.7027 24.2713C14.0595 24.5296 13.3794 24.66 12.6808 24.66C10.518 24.66 8.71226 23.6896 7.94384 22.153C7.45881 22.6565 6.79584 22.9578 6.08674 22.9957C8.3867 25.5417 11.6726 27 15.1258 27C20.8329 27 25.8242 22.9943 26.9946 17.4757C27.0474 17.2278 26.7455 17.0583 26.5571 17.2317H26.5557ZM11.546 19.3148C9.65465 17.7339 8.94291 15.913 9.17357 13.2561C9.18543 13.1126 9.07867 12.9861 8.93368 12.9743C8.78607 12.9613 8.66085 13.0683 8.64899 13.2117C8.41306 15.9313 9.10107 17.837 10.9397 19.4857C9.46485 19.7948 7.98866 19.3917 6.9026 18.4813C6.80375 18.3991 6.66008 18.3991 6.56255 18.4813C5.91408 19.0239 5.21948 19.3291 4.4537 19.4948C1.89672 13.5548 4.78848 8.82522 9.61642 7.56C6.01689 10.0878 6.20668 14.8109 6.20932 14.863C6.21591 15.0039 6.33585 15.1174 6.4861 15.1109C6.63109 15.1043 6.74312 14.9817 6.73653 14.837C6.73389 14.7822 6.52433 9.38609 11.0794 7.32783C11.7464 7.29261 12.3922 7.35913 13.0024 7.52478C10.3203 10.5678 10.5549 14.9178 13.7287 17.73C13.1949 18.4278 12.4502 18.9926 11.5487 19.3122L11.546 19.3148ZM21.9888 10.5522C20.991 6.76957 17.6485 5.07652 14.7778 5.07652C14.6328 5.07652 14.5142 4.95913 14.5142 4.81565C14.5142 4.67217 14.6328 4.55478 14.7778 4.55478C17.8515 4.55478 21.4299 6.36913 22.4988 10.4204C22.5358 10.56 22.4514 10.7022 22.3104 10.7387C22.1707 10.7752 22.0257 10.693 21.9888 10.5522ZM12.4001 22.817C12.2551 22.817 12.1365 22.6996 12.1365 22.5561C12.1365 22.4126 12.2551 22.2952 12.4001 22.2952C13.8341 22.2952 15.1772 21.737 16.1815 20.7248C16.2843 20.6204 16.4544 20.6204 16.5585 20.7248C17.5628 21.7383 18.9059 22.2952 20.3399 22.2952C20.4849 22.2952 20.6035 22.4126 20.6035 22.5561C20.6035 22.6996 20.4849 22.817 20.3399 22.817C18.8505 22.817 17.4521 22.2704 16.37 21.2713C15.2892 22.2704 13.8895 22.817 12.4001 22.817Z" fill="url(#paint1_linear_10785_126612)"/>
</g>
</g>
<path d="M38.336 12.09V10.172H45.938V12.09H43.334V20H40.94V12.09H38.336ZM47.1395 20V9.64H49.5335V13.238C50.0095 12.566 50.8635 12.104 51.9415 12.104C53.7195 12.104 54.9095 13.336 54.9095 15.436V20H52.5295V15.758C52.5295 14.694 51.9415 14.106 51.0315 14.106C50.1215 14.106 49.5335 14.694 49.5335 15.758V20H47.1395ZM60.6471 11.376L59.9611 10.55C60.4371 10.354 60.7311 10.144 60.7311 9.808C60.7311 9.528 60.4931 9.43 60.1711 9.43C60.0031 9.43 59.7511 9.472 59.5271 9.556V8.408C59.8491 8.268 60.2271 8.184 60.5351 8.184C61.3891 8.184 62.2011 8.576 62.2011 9.57C62.2011 10.27 61.8511 10.914 60.6471 11.376ZM64.2871 12.188V20H61.8931V18.936C61.4171 19.608 60.5771 20.084 59.5271 20.084C57.7211 20.084 56.5031 18.838 56.5031 16.752V12.188H58.8831V16.43C58.8831 17.494 59.4851 18.082 60.3811 18.082C61.3051 18.082 61.8931 17.494 61.8931 16.43V12.188H64.2871ZM69.6047 17.074L71.3967 12.188H73.9867L69.0867 23.71H66.5107L68.3027 19.734L65.1247 12.188H67.7987L69.6047 17.074Z" fill="url(#paint2_linear_10785_126612)"/>
<defs>
<filter id="filter0_i_10785_126612" x="0" y="0" width="30" height="34" filterUnits="userSpaceOnUse" color-interpolation-filters="sRGB">
<feFlood flood-opacity="0" result="BackgroundImageFix"/>
<feBlend mode="normal" in="SourceGraphic" in2="BackgroundImageFix" result="shape"/>
<feColorMatrix in="SourceAlpha" type="matrix" values="0 0 0 0 0 0 0 0 0 0 0 0 0 0 0 0 0 0 127 0" result="hardAlpha"/>
<feOffset dy="4"/>
<feGaussianBlur stdDeviation="2"/>
<feComposite in2="hardAlpha" operator="arithmetic" k2="-1" k3="1"/>
<feColorMatrix type="matrix" values="0 0 0 0 0 0 0 0 0 0 0 0 0 0 0 0 0 0 0.25 0"/>
<feBlend mode="normal" in2="shape" result="effect1_innerShadow_10785_126612"/>
</filter>
<linearGradient id="paint0_linear_10785_126612" x1="15" y1="0" x2="15" y2="30" gradientUnits="userSpaceOnUse">
<stop stop-color="#16709D"/>
<stop offset="1" stop-color="#1C2660"/>
</linearGradient>
<linearGradient id="paint1_linear_10785_126612" x1="11.9568" y1="4.73913" x2="6.2178" y2="21.8697" gradientUnits="userSpaceOnUse">
<stop stop-color="#CEEFFF"/>
<stop offset="1" stop-color="#29A6E0"/>
</linearGradient>
<linearGradient id="paint2_linear_10785_126612" x1="56" y1="4" x2="56" y2="26" gradientUnits="userSpaceOnUse">
<stop stop-color="#16709D"/>
<stop offset="1" stop-color="#1C2660"/>
</linearGradient>
<clipPath id="clip0_10785_126612">
<rect width="24" height="24" fill="white" transform="translate(3 3)"/>
</clipPath>
</defs>
</svg>
